<?xml version="1.0" encoding="UTF-8" standalone="no"?>
<!DOCTYPE svg PUBLIC "-//W3C//DTD SVG 1.1//EN" "http://www.w3.org/Graphics/SVG/1.1/DTD/svg11.dtd">
<svg width="100%" height="100%" viewBox="0 0 250 250" version="1.1" xmlns="http://www.w3.org/2000/svg">
    <g>
        <rect x="0" y="0" width="250" height="250" style="fill:rgb(255,255,255);"/>
        <path d="M0,0L0,250L250,250L250,0L0,0ZM67.5,234C44.734,234 26,215.266 26,192.5C26,169.734 44.734,151 67.5,151C90.266,151 109,169.734 109,192.5C109,215.266 90.266,234 67.5,234ZM113,137L20,137L20,112L113,112L113,137ZM113,91L20,91L20,66L113,66L113,91ZM113,46L20,46L20,21L113,21L113,46ZM228,183L135,183L135,158L228,158L228,183ZM228,137L135,137L135,112L228,112L228,137ZM228,91L135,91L135,66L228,66L228,91ZM228,46L135,46L135,21L228,21L228,46Z" style="fill:rgb(255,140,0);"/>
    </g>
</svg>
